# xmcd
#
# Track frame offsets:
#	150
#	8674
#	17077
#	27456
#	38453
#	49195
#	58724
#	66913
#	77035
#	87124
#	98641
#	109598
#	119922
#	129436
#	141381
#	151732
#	165201
#	173849
#	185001
#	193489
#	205136
#	214873
#	225654
#	235114
#	245110
#	254683
#	263819
#	274006
#	283682
#	294734
#	306126
#	314556
#	323592
#
# Disc length: 4455
#
# Revision: 1
# Processed by: cddbd v1.5.1PL0 Copyright (c) Steve Scherf et al.
# Submitted via: CDex 1.50Beta7
# Normalized: r0:DSETVAR1
#
DISCID=e1116521
DTITLE=Various Artist - A Single Collection From Country Rock Cirkle - Disc 2
DYEAR=2002
DGENRE=Country
TTITLE0=Carl Perkins - Help Me Find My Baby
TTITLE1=Carl Perkins - Lonely Heart
TTITLE2=Roy Young - Hey Little Girl
TTITLE3=Jack Scott - Sad Story
TTITLE4=James Gilreath - Little Band Og Gold
TTITLE5=Billy Parker - Thanks A Lot
TTITLE6=Clyde Mcphatter - Lover Please
TTITLE7=Jim Lowe - The Green Door
TTITLE8=Miki And Griff - It's My Way
TTITLE9=Teddy Randazzo - Little Serenade
TTITLE10=Jack Ford - That's All You Gotta Do
TTITLE11=Chubby Checker - The Class
TTITLE12=Rock-A-Teens - Woo Hoo
TTITLE13=Lou Moute - Lazy Mary
TTITLE14=Billy Bland - Let The Little Girl Dance
TTITLE15=Mike Berry - Tribute To Buddy Holly
TTITLE16=The Avons - I Keep Dreaming
TTITLE17=Dick Lory - Cool It Baby
TTITLE18=Don Robertson and Lou Dinning - So Long
TTITLE19=Don Sargent - Red Ruby Lips
TTITLE20=Paul Anka - A Steel Guitar And A Glass Of Vine
TTITLE21=Larry Hall - Sandy
TTITLE22=The Ross Brothers - At The Fair
TTITLE23=Pat O'Day - All Love Broke Loose
TTITLE24=Tommy Bruce - Ain't Misbehavin'
TTITLE25=Janis And Her Boyfriends - Bang, Bang
TTITLE26=Gene Pitney - Louisiana Mama
TTITLE27=Jerry Keller - Here Comes Summer
TTITLE28=Johnny Burnette - Honestly I Do
TTITLE29=Clyde McPhatter - A Lovers Question
TTITLE30=Billy Vaughn - I'm Vaitin'
TTITLE31=Little Bobby Rey - Dance Of The New Year
TTITLE32=Billy Vaughn - Jingle Bells - Bjelleklang
EXTD=YEAR: 2002
EXTT0=
EXTT1=
EXTT2=
EXTT3=
EXTT4=
EXTT5=
EXTT6=
EXTT7=
EXTT8=
EXTT9=
EXTT10=
EXTT11=
EXTT12=
EXTT13=
EXTT14=
EXTT15=
EXTT16=
EXTT17=
EXTT18=
EXTT19=
EXTT20=
EXTT21=
EXTT22=
EXTT23=
EXTT24=
EXTT25=
EXTT26=
EXTT27=
EXTT28=
EXTT29=
EXTT30=
EXTT31=
EXTT32=
PLAYORDER=
